PathFileType	4	(X/Y/Z)	C:\Users\ebm\Documents\Erivelton\Erivelton2\wc1.trc
DataRate	CameraRate	NumFrames	NumMarkers	Units	OrigDataRate	OrigDataStartFrame	OrigNumFrames
150.00	150.00	       7	28	mm	150.00	376	       750
Frame#	Time	IJ			PX			C7			T8			RAC			RAS			RPS			RAI			RPI			RLE			RME			RRS			RUS			R3M			R5M			LAC			LAS			LPS			LAI			LPI			LLE			LME			LRS			LUS			L3M			L5M			RW			LW			V_mid_elbow_r			V_mid_elbow_l			V_mid_wrist_r			V_mid_wrist_l			V_mid_trunk_low			V_mid_trunk_upp			
		X1	Y1	Z1	X2	Y2	Z2	X3	Y3	Z3	X4	Y4	Z4	X5	Y5	Z5	X6	Y6	Z6	X7	Y7	Z7	X8	Y8	Z8	X9	Y9	Z9	X10	Y10	Z10	X11	Y11	Z11	X12	Y12	Z12	X13	Y13	Z13	X14	Y14	Z14	X15	Y15	Z15	X16	Y16	Z16	X17	Y17	Z17	X18	Y18	Z18	X19	Y19	Z19	X20	Y20	Z20	X21	Y21	Z21	X22	Y22	Z22	X23	Y23	Z23	X24	Y24	Z24	X25	Y25	Z25	X26	Y26	Z26	X27	Y27	Z27	X28	Y28	Z28	

376	2.500	2458.51221	1028.59766	-200.68835	2481.08008	864.13379	-185.56166	2323.41992	1119.18970	-206.98477	2257.62549	965.06549	-195.84258	2378.40894	1064.42322	4.32153	2410.08276	871.89581	65.97043	2360.24658	871.91583	66.10577	2419.10376	797.35907	87.75124	2365.69507	794.03674	88.61699	2379.63623	733.30597	98.88820	2369.54907	710.78540	25.63856	2553.05029	528.73682	148.06355	2496.11377	514.37878	160.29761	2559.55151	440.44479	171.03824	2522.64575	430.72556	160.40465	2364.68628	1056.52893	-388.58463	2367.72485	884.24976	-458.73215	2323.36206	873.47491	-442.20862	2386.33838	807.15179	-476.91891	2336.76587	792.45300	-458.52225	2379.16797	722.47906	-489.36819	2356.14307	700.49048	-419.87607	2546.82544	517.60492	-509.94586	2494.33301	487.53610	-532.99982	2559.85205	425.38556	-531.90283	2520.08594	421.68350	-530.94659	2439.98218	299.37350	131.41582	2427.76782	297.66235	-497.28543	
377	2.507	2458.51489	1028.58203	-200.68642	2481.07837	864.12701	-185.56506	2323.42993	1119.17346	-206.98985	2257.62964	965.07617	-195.85017	2378.40161	1064.40564	4.31853	2410.07202	871.88074	65.96155	2360.23340	871.90326	66.10075	2419.09424	797.35541	87.74336	2365.68286	794.02161	88.60311	2379.63110	733.29077	98.88003	2369.54053	710.77344	25.62222	2553.02905	528.71942	148.06482	2496.09570	514.37268	160.30026	2559.51978	440.42081	171.04752	2522.64038	430.70139	160.42149	2364.67480	1056.52441	-388.58817	2367.72583	884.13867	-458.75903	2323.36279	873.47162	-442.20444	2386.33984	807.15186	-476.91092	2336.75513	792.45050	-458.51361	2379.15845	722.48157	-489.38040	2356.14526	700.48004	-419.86804	2546.81152	517.59796	-509.94290	2494.30493	487.51575	-532.98981	2559.82739	425.38406	-531.90607	2520.06274	421.68765	-530.95508	2439.97974	299.36746	131.41078	2427.76074	297.65894	-497.28979	
378	2.513	2458.51294	1028.57007	-200.68106	2480.76074	863.69580	-185.63091	2323.43433	1119.18250	-206.98102	2257.63428	965.06427	-195.84595	2378.39722	1064.39587	4.30801	2410.07520	871.88385	65.95036	2360.22974	871.88757	66.09441	2419.07251	797.33545	87.74033	2365.67603	794.00934	88.60326	2379.61646	733.27679	98.86989	2369.53345	710.76135	25.61202	2553.01855	528.71246	148.07259	2496.07642	514.36346	160.30421	2559.50854	440.41724	171.06100	2522.61279	430.68985	160.42255	2364.69214	1056.52563	-388.58591	2367.71094	884.23401	-458.73666	2323.35107	873.46619	-442.20337	2386.33228	807.14703	-476.91861	2336.75171	792.43896	-458.51495	2379.14966	722.47980	-489.37546	2356.11255	700.48901	-419.88910	2546.78906	517.58655	-509.94559	2494.29272	487.50424	-532.98529	2559.81348	425.37192	-531.90668	2520.04272	421.66849	-530.93750	2439.98145	299.36823	131.40904	2427.75488	297.66486	-497.29034	
379	2.520	2458.49829	1028.56812	-200.68823	2481.05469	864.10779	-185.58252	2323.43457	1119.16992	-206.99556	2257.62427	965.07300	-195.84146	2378.37939	1064.39026	4.31559	2410.04956	871.86011	65.95251	2360.21875	871.88422	66.09653	2419.06958	797.33069	87.74059	2365.67407	793.99603	88.60664	2379.60229	733.26953	98.87611	2369.50684	710.76471	25.61749	2552.99780	528.70221	148.08618	2496.05176	514.34949	160.30841	2559.47852	440.40585	171.06470	2522.59448	430.67435	160.42181	2364.67139	1056.51526	-388.58713	2367.70776	884.23779	-458.73892	2323.34766	873.46033	-442.20309	2386.31079	807.13727	-476.92484	2336.73926	792.44269	-458.50797	2379.12671	722.46600	-489.39139	2356.13940	700.45587	-419.84958	2546.78174	517.57745	-509.94772	2494.27515	487.50113	-532.99438	2559.78833	425.35614	-531.89838	2520.03027	421.66345	-530.94147	2439.98315	299.36716	131.40100	2427.74658	297.66428	-497.29666	
380	2.527	2458.48877	1028.55127	-200.67778	2481.05908	864.10571	-185.57791	2323.44507	1119.17871	-206.99155	2257.62329	965.06976	-195.86049	2378.37598	1064.37085	4.31291	2410.04346	871.85162	65.94686	2360.21045	871.86896	66.07722	2419.05347	797.32086	87.73824	2365.64771	793.99255	88.60092	2379.59058	733.25220	98.86122	2369.50757	710.74365	25.61826	2552.98389	528.69373	148.09154	2496.03540	514.34540	160.30919	2559.46582	440.39426	171.07573	2522.57446	430.66684	160.42117	2364.67554	1056.51294	-388.58313	2367.68823	884.23401	-458.74197	2323.33813	873.46332	-442.20630	2386.30200	807.13690	-476.92355	2336.72754	792.43579	-458.51291	2379.12109	722.46204	-489.38342	2356.11548	700.46912	-419.87756	2546.76855	517.56219	-509.94077	2494.26074	487.49356	-532.97955	2559.77808	425.36160	-531.90601	2520.01465	421.65662	-530.92725	2439.97803	299.36621	131.41013	2427.75732	297.66318	-497.29013	
381	2.533	2458.50732	1028.54456	-200.67416	2481.05493	864.09460	-185.58162	2323.46045	1119.16687	-207.00475	2257.63037	965.06604	-195.86800	2378.35669	1064.36609	4.30884	2410.03320	871.85321	65.94400	2360.19897	871.86310	66.07474	2419.03271	797.30908	87.73988	2365.63721	793.97296	88.59706	2379.57715	733.24756	98.86723	2369.48975	710.73425	25.59420	2552.96582	528.68384	148.10107	2496.01392	514.33185	160.30624	2559.44287	440.38348	171.07787	2522.53784	430.65042	160.42886	2364.66943	1056.51233	-388.58792	2367.69067	884.23004	-458.73825	2323.33301	873.45660	-442.19394	2386.28735	807.13489	-476.93015	2336.71411	792.43732	-458.50922	2379.11450	722.45825	-489.37772	2356.09741	700.44696	-419.87048	2546.76465	517.56439	-509.93967	2494.24976	487.48364	-532.99390	2559.76660	425.34723	-531.89526	2520.01147	421.65366	-530.93805	2439.96777	299.36353	131.40863	2427.74976	297.66870	-497.29099	
382	2.540	2458.48804	1028.53772	-200.67709	2481.01318	864.08258	-185.58267	2323.45020	1119.17395	-207.00273	2257.62549	965.06860	-195.85960	2378.33862	1064.36108	4.34785	2410.01587	871.83960	65.94540	2360.18896	871.85272	66.07921	2419.01245	797.30444	87.74406	2365.61841	793.97015	88.60240	2379.56274	733.24133	98.88185	2369.46069	710.72919	25.62323	2552.95020	528.67371	148.10497	2495.99976	514.32684	160.30733	2559.42993	440.37683	171.08389	2522.52246	430.64841	160.43814	2364.67896	1056.50342	-388.58765	2367.68359	884.11664	-458.77200	2323.31812	873.44934	-442.19058	2386.27563	807.12872	-476.92297	2336.69702	792.42371	-458.51822	2379.10864	722.43079	-489.37616	2356.09741	700.43890	-419.87051	2546.74756	517.56439	-509.93350	2494.23804	487.46976	-532.97748	2559.75342	425.35297	-531.89697	2519.99878	421.65060	-530.93787	2439.96582	299.35153	131.41377	2427.74927	297.66003	-497.29724	
